<mxfile host="app.diagrams.net" modified="2024-01-28T15:08:10.108Z" agent="Mozilla/5.0 (Windows NT 10.0; Win64; x64; rv:121.0) Gecko/20100101 Firefox/121.0" etag="O7joh79o3dX_d_dOJL7H" version="23.0.2" type="device">
  <diagram name="Page-1" id="grePgRaoDNj7AmUCVbBd">
    <mxGraphModel dx="1434" dy="746" grid="1" gridSize="10" guides="1" tooltips="1" connect="1" arrows="1" fold="1" page="1" pageScale="1" pageWidth="850" pageHeight="1100" math="0" shadow="0">
      <root>
        <mxCell id="0" />
        <mxCell id="1" parent="0" />
        <mxCell id="rNG54FNHqMWdp60zCdtg-12" style="edgeStyle=orthogonalEdgeStyle;shape=connector;rounded=0;sketch=1;jiggle=2;curveFitting=1;orthogonalLoop=1;jettySize=auto;html=1;labelBackgroundColor=default;strokeColor=default;align=center;verticalAlign=middle;fontFamily=Helvetica;fontSize=11;fontColor=default;endArrow=ERmany;endFill=0;startSize=13;endSize=13;" parent="1" source="rNG54FNHqMWdp60zCdtg-26" target="rNG54FNHqMWdp60zCdtg-34" edge="1">
          <mxGeometry relative="1" as="geometry">
            <mxPoint x="165" y="190" as="sourcePoint" />
            <mxPoint x="275" y="190" as="targetPoint" />
          </mxGeometry>
        </mxCell>
        <mxCell id="rNG54FNHqMWdp60zCdtg-13" style="edgeStyle=orthogonalEdgeStyle;shape=connector;rounded=0;sketch=1;jiggle=2;curveFitting=1;orthogonalLoop=1;jettySize=auto;html=1;labelBackgroundColor=default;strokeColor=default;align=center;verticalAlign=middle;fontFamily=Helvetica;fontSize=11;fontColor=default;endArrow=ERmany;endFill=0;startSize=13;endSize=13;" parent="1" source="rNG54FNHqMWdp60zCdtg-26" target="rNG54FNHqMWdp60zCdtg-64" edge="1">
          <mxGeometry relative="1" as="geometry">
            <mxPoint x="100" y="220" as="sourcePoint" />
            <mxPoint x="100" y="359.9999999999999" as="targetPoint" />
          </mxGeometry>
        </mxCell>
        <mxCell id="rNG54FNHqMWdp60zCdtg-11" style="edgeStyle=orthogonalEdgeStyle;rounded=0;orthogonalLoop=1;jettySize=auto;html=1;sketch=1;curveFitting=1;jiggle=2;endArrow=ERmany;endFill=0;endSize=13;startSize=13;" parent="1" source="rNG54FNHqMWdp60zCdtg-59" target="rNG54FNHqMWdp60zCdtg-34" edge="1">
          <mxGeometry relative="1" as="geometry">
            <mxPoint x="325" y="359.9999999999999" as="sourcePoint" />
            <mxPoint x="325" y="220" as="targetPoint" />
          </mxGeometry>
        </mxCell>
        <mxCell id="rNG54FNHqMWdp60zCdtg-14" style="edgeStyle=orthogonalEdgeStyle;shape=connector;rounded=0;sketch=1;jiggle=2;curveFitting=1;orthogonalLoop=1;jettySize=auto;html=1;labelBackgroundColor=default;strokeColor=default;align=center;verticalAlign=middle;fontFamily=Helvetica;fontSize=11;fontColor=default;endArrow=ERmany;endFill=0;startSize=13;endSize=13;" parent="1" source="rNG54FNHqMWdp60zCdtg-59" target="rNG54FNHqMWdp60zCdtg-64" edge="1">
          <mxGeometry relative="1" as="geometry">
            <mxPoint x="275" y="389.9999999999999" as="sourcePoint" />
            <mxPoint x="165" y="390.0000000000001" as="targetPoint" />
          </mxGeometry>
        </mxCell>
        <mxCell id="rNG54FNHqMWdp60zCdtg-18" style="edgeStyle=orthogonalEdgeStyle;shape=connector;rounded=0;sketch=1;jiggle=2;curveFitting=1;orthogonalLoop=1;jettySize=auto;html=1;labelBackgroundColor=default;strokeColor=default;align=center;verticalAlign=middle;fontFamily=Helvetica;fontSize=11;fontColor=default;endArrow=ERmany;endFill=0;startSize=13;endSize=13;" parent="1" source="rNG54FNHqMWdp60zCdtg-59" target="rNG54FNHqMWdp60zCdtg-55" edge="1">
          <mxGeometry relative="1" as="geometry">
            <mxPoint x="325" y="420" as="sourcePoint" />
            <mxPoint x="325" y="500" as="targetPoint" />
          </mxGeometry>
        </mxCell>
        <mxCell id="rNG54FNHqMWdp60zCdtg-19" style="edgeStyle=orthogonalEdgeStyle;shape=connector;rounded=0;sketch=1;jiggle=2;curveFitting=1;orthogonalLoop=1;jettySize=auto;html=1;labelBackgroundColor=default;strokeColor=default;align=center;verticalAlign=middle;fontFamily=Helvetica;fontSize=11;fontColor=default;endArrow=ERmany;endFill=0;startSize=13;endSize=13;" parent="1" source="rNG54FNHqMWdp60zCdtg-59" target="rNG54FNHqMWdp60zCdtg-45" edge="1">
          <mxGeometry relative="1" as="geometry">
            <mxPoint x="390" y="389.9999999999999" as="sourcePoint" />
            <mxPoint x="510" y="389.9999999999999" as="targetPoint" />
          </mxGeometry>
        </mxCell>
        <mxCell id="rNG54FNHqMWdp60zCdtg-22" style="edgeStyle=orthogonalEdgeStyle;shape=connector;rounded=0;sketch=1;jiggle=2;curveFitting=1;orthogonalLoop=1;jettySize=auto;html=1;labelBackgroundColor=default;strokeColor=default;align=center;verticalAlign=middle;fontFamily=Helvetica;fontSize=11;fontColor=default;endArrow=ERmany;endFill=0;startSize=13;endSize=13;" parent="1" source="rNG54FNHqMWdp60zCdtg-55" target="rNG54FNHqMWdp60zCdtg-45" edge="1">
          <mxGeometry relative="1" as="geometry">
            <mxPoint x="390" y="530" as="sourcePoint" />
            <mxPoint x="580" y="420" as="targetPoint" />
          </mxGeometry>
        </mxCell>
        <mxCell id="rNG54FNHqMWdp60zCdtg-20" style="edgeStyle=orthogonalEdgeStyle;shape=connector;rounded=0;sketch=1;jiggle=2;curveFitting=1;orthogonalLoop=1;jettySize=auto;html=1;labelBackgroundColor=default;strokeColor=default;align=center;verticalAlign=middle;fontFamily=Helvetica;fontSize=11;fontColor=default;endArrow=ERmany;endFill=0;startSize=13;endSize=13;" parent="1" source="rNG54FNHqMWdp60zCdtg-34" target="rNG54FNHqMWdp60zCdtg-41" edge="1">
          <mxGeometry relative="1" as="geometry">
            <mxPoint x="390" y="190" as="sourcePoint" />
            <mxPoint x="510" y="190" as="targetPoint" />
          </mxGeometry>
        </mxCell>
        <mxCell id="rNG54FNHqMWdp60zCdtg-21" style="edgeStyle=orthogonalEdgeStyle;shape=connector;rounded=0;sketch=1;jiggle=2;curveFitting=1;orthogonalLoop=1;jettySize=auto;html=1;labelBackgroundColor=default;strokeColor=default;align=center;verticalAlign=middle;fontFamily=Helvetica;fontSize=11;fontColor=default;endArrow=ERmany;endFill=0;startSize=13;endSize=13;exitX=0.5;exitY=0;exitDx=0;exitDy=0;" parent="1" source="rNG54FNHqMWdp60zCdtg-45" target="rNG54FNHqMWdp60zCdtg-41" edge="1">
          <mxGeometry relative="1" as="geometry">
            <mxPoint x="565" y="350" as="sourcePoint" />
            <mxPoint x="565" y="220" as="targetPoint" />
          </mxGeometry>
        </mxCell>
        <mxCell id="rNG54FNHqMWdp60zCdtg-26" value="&lt;div style=&quot;line-height: 30%;&quot;&gt;&lt;font style=&quot;font-size: 16px;&quot;&gt;User&lt;/font&gt;&lt;/div&gt;" style="swimlane;fontStyle=2;align=center;verticalAlign=top;childLayout=stackLayout;horizontal=1;startSize=48;horizontalStack=0;resizeParent=1;resizeLast=0;collapsible=1;marginBottom=0;rounded=0;shadow=0;strokeWidth=1;sketch=1;curveFitting=1;jiggle=2;fontFamily=Roboto;fontSource=https%3A%2F%2Ffonts.googleapis.com%2Fcss%3Ffamily%3DRoboto;fontSize=14;spacingTop=15;html=1;" parent="1" vertex="1">
          <mxGeometry x="20" y="123" width="160" height="134" as="geometry">
            <mxRectangle x="40" y="50" width="160" height="48" as="alternateBounds" />
          </mxGeometry>
        </mxCell>
        <mxCell id="rNG54FNHqMWdp60zCdtg-27" value="email" style="text;align=left;verticalAlign=top;spacingLeft=4;spacingRight=4;overflow=hidden;rotatable=0;points=[[0,0.5],[1,0.5]];portConstraint=eastwest;fontFamily=Roboto;fontSource=https%3A%2F%2Ffonts.googleapis.com%2Fcss%3Ffamily%3DRoboto;" parent="rNG54FNHqMWdp60zCdtg-26" vertex="1">
          <mxGeometry y="48" width="160" height="26" as="geometry" />
        </mxCell>
        <mxCell id="rNG54FNHqMWdp60zCdtg-28" value="name" style="text;align=left;verticalAlign=top;spacingLeft=4;spacingRight=4;overflow=hidden;rotatable=0;points=[[0,0.5],[1,0.5]];portConstraint=eastwest;rounded=0;shadow=0;html=0;fontFamily=Roboto;fontSource=https%3A%2F%2Ffonts.googleapis.com%2Fcss%3Ffamily%3DRoboto;" parent="rNG54FNHqMWdp60zCdtg-26" vertex="1">
          <mxGeometry y="74" width="160" height="26" as="geometry" />
        </mxCell>
        <mxCell id="rNG54FNHqMWdp60zCdtg-78" value="status" style="text;align=left;verticalAlign=top;spacingLeft=4;spacingRight=4;overflow=hidden;rotatable=0;points=[[0,0.5],[1,0.5]];portConstraint=eastwest;fontFamily=Roboto;fontSource=https%3A%2F%2Ffonts.googleapis.com%2Fcss%3Ffamily%3DRoboto;" parent="rNG54FNHqMWdp60zCdtg-26" vertex="1">
          <mxGeometry y="100" width="160" height="26" as="geometry" />
        </mxCell>
        <mxCell id="rNG54FNHqMWdp60zCdtg-30" value="" style="line;html=1;strokeWidth=1;align=left;verticalAlign=middle;spacingTop=-1;spacingLeft=3;spacingRight=3;rotatable=0;labelPosition=right;points=[];portConstraint=eastwest;sketch=1;curveFitting=1;jiggle=2;" parent="rNG54FNHqMWdp60zCdtg-26" vertex="1">
          <mxGeometry y="126" width="160" height="8" as="geometry" />
        </mxCell>
        <mxCell id="rNG54FNHqMWdp60zCdtg-34" value="&lt;div style=&quot;line-height: 30%;&quot;&gt;&lt;font style=&quot;font-size: 16px;&quot;&gt;TeamMember&lt;/font&gt;&lt;/div&gt;" style="swimlane;fontStyle=2;align=center;verticalAlign=top;childLayout=stackLayout;horizontal=1;startSize=48;horizontalStack=0;resizeParent=1;resizeLast=0;collapsible=1;marginBottom=0;rounded=0;shadow=0;strokeWidth=1;sketch=1;curveFitting=1;jiggle=2;fontFamily=Roboto;fontSource=https%3A%2F%2Ffonts.googleapis.com%2Fcss%3Ffamily%3DRoboto;fontSize=14;spacingTop=15;html=1;" parent="1" vertex="1">
          <mxGeometry x="245" y="136" width="160" height="108" as="geometry">
            <mxRectangle x="295" y="136" width="160" height="48" as="alternateBounds" />
          </mxGeometry>
        </mxCell>
        <mxCell id="rNG54FNHqMWdp60zCdtg-35" value="nickname" style="text;align=left;verticalAlign=top;spacingLeft=4;spacingRight=4;overflow=hidden;rotatable=0;points=[[0,0.5],[1,0.5]];portConstraint=eastwest;fontFamily=Roboto;fontSource=https%3A%2F%2Ffonts.googleapis.com%2Fcss%3Ffamily%3DRoboto;" parent="rNG54FNHqMWdp60zCdtg-34" vertex="1">
          <mxGeometry y="48" width="160" height="26" as="geometry" />
        </mxCell>
        <mxCell id="rNG54FNHqMWdp60zCdtg-40" value="role" style="text;align=left;verticalAlign=top;spacingLeft=4;spacingRight=4;overflow=hidden;rotatable=0;points=[[0,0.5],[1,0.5]];portConstraint=eastwest;fontFamily=Roboto;fontSource=https%3A%2F%2Ffonts.googleapis.com%2Fcss%3Ffamily%3DRoboto;" parent="rNG54FNHqMWdp60zCdtg-34" vertex="1">
          <mxGeometry y="74" width="160" height="26" as="geometry" />
        </mxCell>
        <mxCell id="rNG54FNHqMWdp60zCdtg-38" value="" style="line;html=1;strokeWidth=1;align=left;verticalAlign=middle;spacingTop=-1;spacingLeft=3;spacingRight=3;rotatable=0;labelPosition=right;points=[];portConstraint=eastwest;sketch=1;curveFitting=1;jiggle=2;" parent="rNG54FNHqMWdp60zCdtg-34" vertex="1">
          <mxGeometry y="100" width="160" height="8" as="geometry" />
        </mxCell>
        <mxCell id="rNG54FNHqMWdp60zCdtg-41" value="&lt;div style=&quot;line-height: 30%;&quot;&gt;&lt;font style=&quot;font-size: 16px;&quot;&gt;EventResponse&lt;/font&gt;&lt;/div&gt;" style="swimlane;fontStyle=2;align=center;verticalAlign=top;childLayout=stackLayout;horizontal=1;startSize=48;horizontalStack=0;resizeParent=1;resizeLast=0;collapsible=1;marginBottom=0;rounded=0;shadow=0;strokeWidth=1;sketch=1;curveFitting=1;jiggle=2;fontFamily=Roboto;fontSource=https%3A%2F%2Ffonts.googleapis.com%2Fcss%3Ffamily%3DRoboto;fontSize=14;spacingTop=15;html=1;" parent="1" vertex="1">
          <mxGeometry x="475" y="129" width="160" height="122" as="geometry">
            <mxRectangle x="295" y="136" width="160" height="48" as="alternateBounds" />
          </mxGeometry>
        </mxCell>
        <mxCell id="rNG54FNHqMWdp60zCdtg-74" value="type" style="text;align=left;verticalAlign=top;spacingLeft=4;spacingRight=4;overflow=hidden;rotatable=0;points=[[0,0.5],[1,0.5]];portConstraint=eastwest;fontFamily=Roboto;fontSource=https%3A%2F%2Ffonts.googleapis.com%2Fcss%3Ffamily%3DRoboto;" parent="rNG54FNHqMWdp60zCdtg-41" vertex="1">
          <mxGeometry y="48" width="160" height="22" as="geometry" />
        </mxCell>
        <mxCell id="rNG54FNHqMWdp60zCdtg-76" value="message" style="text;align=left;verticalAlign=top;spacingLeft=4;spacingRight=4;overflow=hidden;rotatable=0;points=[[0,0.5],[1,0.5]];portConstraint=eastwest;fontFamily=Roboto;fontSource=https%3A%2F%2Ffonts.googleapis.com%2Fcss%3Ffamily%3DRoboto;" parent="rNG54FNHqMWdp60zCdtg-41" vertex="1">
          <mxGeometry y="70" width="160" height="22" as="geometry" />
        </mxCell>
        <mxCell id="rNG54FNHqMWdp60zCdtg-43" value="timestamp" style="text;align=left;verticalAlign=top;spacingLeft=4;spacingRight=4;overflow=hidden;rotatable=0;points=[[0,0.5],[1,0.5]];portConstraint=eastwest;fontFamily=Roboto;fontSource=https%3A%2F%2Ffonts.googleapis.com%2Fcss%3Ffamily%3DRoboto;" parent="rNG54FNHqMWdp60zCdtg-41" vertex="1">
          <mxGeometry y="92" width="160" height="22" as="geometry" />
        </mxCell>
        <mxCell id="rNG54FNHqMWdp60zCdtg-44" value="" style="line;html=1;strokeWidth=1;align=left;verticalAlign=middle;spacingTop=-1;spacingLeft=3;spacingRight=3;rotatable=0;labelPosition=right;points=[];portConstraint=eastwest;sketch=1;curveFitting=1;jiggle=2;" parent="rNG54FNHqMWdp60zCdtg-41" vertex="1">
          <mxGeometry y="114" width="160" height="8" as="geometry" />
        </mxCell>
        <mxCell id="rNG54FNHqMWdp60zCdtg-45" value="&lt;div style=&quot;line-height: 30%;&quot;&gt;&lt;font style=&quot;font-size: 16px;&quot;&gt;Event&lt;/font&gt;&lt;/div&gt;" style="swimlane;fontStyle=2;align=center;verticalAlign=top;childLayout=stackLayout;horizontal=1;startSize=48;horizontalStack=0;resizeParent=1;resizeLast=0;collapsible=1;marginBottom=0;rounded=0;shadow=0;strokeWidth=1;sketch=1;curveFitting=1;jiggle=2;fontFamily=Roboto;fontSource=https%3A%2F%2Ffonts.googleapis.com%2Fcss%3Ffamily%3DRoboto;fontSize=14;spacingTop=15;html=1;" parent="1" vertex="1">
          <mxGeometry x="475" y="300" width="160" height="206" as="geometry">
            <mxRectangle x="550" y="287" width="160" height="48" as="alternateBounds" />
          </mxGeometry>
        </mxCell>
        <mxCell id="rNG54FNHqMWdp60zCdtg-46" value="from" style="text;align=left;verticalAlign=top;spacingLeft=4;spacingRight=4;overflow=hidden;rotatable=0;points=[[0,0.5],[1,0.5]];portConstraint=eastwest;fontFamily=Roboto;fontSource=https%3A%2F%2Ffonts.googleapis.com%2Fcss%3Ffamily%3DRoboto;" parent="rNG54FNHqMWdp60zCdtg-45" vertex="1">
          <mxGeometry y="48" width="160" height="26" as="geometry" />
        </mxCell>
        <mxCell id="rNG54FNHqMWdp60zCdtg-48" value="to" style="text;align=left;verticalAlign=top;spacingLeft=4;spacingRight=4;overflow=hidden;rotatable=0;points=[[0,0.5],[1,0.5]];portConstraint=eastwest;fontFamily=Roboto;fontSource=https%3A%2F%2Ffonts.googleapis.com%2Fcss%3Ffamily%3DRoboto;" parent="rNG54FNHqMWdp60zCdtg-45" vertex="1">
          <mxGeometry y="74" width="160" height="26" as="geometry" />
        </mxCell>
        <mxCell id="rNG54FNHqMWdp60zCdtg-49" value="description" style="text;align=left;verticalAlign=top;spacingLeft=4;spacingRight=4;overflow=hidden;rotatable=0;points=[[0,0.5],[1,0.5]];portConstraint=eastwest;fontFamily=Roboto;fontSource=https%3A%2F%2Ffonts.googleapis.com%2Fcss%3Ffamily%3DRoboto;" parent="rNG54FNHqMWdp60zCdtg-45" vertex="1">
          <mxGeometry y="100" width="160" height="26" as="geometry" />
        </mxCell>
        <mxCell id="rNG54FNHqMWdp60zCdtg-50" value="status" style="text;align=left;verticalAlign=top;spacingLeft=4;spacingRight=4;overflow=hidden;rotatable=0;points=[[0,0.5],[1,0.5]];portConstraint=eastwest;fontFamily=Roboto;fontSource=https%3A%2F%2Ffonts.googleapis.com%2Fcss%3Ffamily%3DRoboto;" parent="rNG54FNHqMWdp60zCdtg-45" vertex="1">
          <mxGeometry y="126" width="160" height="24" as="geometry" />
        </mxCell>
        <mxCell id="rNG54FNHqMWdp60zCdtg-53" value="meetTime" style="text;align=left;verticalAlign=top;spacingLeft=4;spacingRight=4;overflow=hidden;rotatable=0;points=[[0,0.5],[1,0.5]];portConstraint=eastwest;fontFamily=Roboto;fontSource=https%3A%2F%2Ffonts.googleapis.com%2Fcss%3Ffamily%3DRoboto;" parent="rNG54FNHqMWdp60zCdtg-45" vertex="1">
          <mxGeometry y="150" width="160" height="24" as="geometry" />
        </mxCell>
        <mxCell id="rNG54FNHqMWdp60zCdtg-54" value="replyClosingTime" style="text;align=left;verticalAlign=top;spacingLeft=4;spacingRight=4;overflow=hidden;rotatable=0;points=[[0,0.5],[1,0.5]];portConstraint=eastwest;fontFamily=Roboto;fontSource=https%3A%2F%2Ffonts.googleapis.com%2Fcss%3Ffamily%3DRoboto;" parent="rNG54FNHqMWdp60zCdtg-45" vertex="1">
          <mxGeometry y="174" width="160" height="24" as="geometry" />
        </mxCell>
        <mxCell id="rNG54FNHqMWdp60zCdtg-47" value="" style="line;html=1;strokeWidth=1;align=left;verticalAlign=middle;spacingTop=-1;spacingLeft=3;spacingRight=3;rotatable=0;labelPosition=right;points=[];portConstraint=eastwest;sketch=1;curveFitting=1;jiggle=2;" parent="rNG54FNHqMWdp60zCdtg-45" vertex="1">
          <mxGeometry y="198" width="160" height="8" as="geometry" />
        </mxCell>
        <mxCell id="rNG54FNHqMWdp60zCdtg-55" value="&lt;div style=&quot;line-height: 30%;&quot;&gt;&lt;font style=&quot;font-size: 16px;&quot;&gt;EventType&lt;/font&gt;&lt;/div&gt;" style="swimlane;fontStyle=2;align=center;verticalAlign=top;childLayout=stackLayout;horizontal=1;startSize=48;horizontalStack=0;resizeParent=1;resizeLast=0;collapsible=1;marginBottom=0;rounded=0;shadow=0;strokeWidth=1;sketch=1;curveFitting=1;jiggle=2;fontFamily=Roboto;fontSource=https%3A%2F%2Ffonts.googleapis.com%2Fcss%3Ffamily%3DRoboto;fontSize=14;spacingTop=15;html=1;" parent="1" vertex="1">
          <mxGeometry x="245" y="520" width="160" height="108" as="geometry">
            <mxRectangle x="295" y="136" width="160" height="48" as="alternateBounds" />
          </mxGeometry>
        </mxCell>
        <mxCell id="rNG54FNHqMWdp60zCdtg-56" value="name" style="text;align=left;verticalAlign=top;spacingLeft=4;spacingRight=4;overflow=hidden;rotatable=0;points=[[0,0.5],[1,0.5]];portConstraint=eastwest;fontFamily=Roboto;fontSource=https%3A%2F%2Ffonts.googleapis.com%2Fcss%3Ffamily%3DRoboto;" parent="rNG54FNHqMWdp60zCdtg-55" vertex="1">
          <mxGeometry y="48" width="160" height="26" as="geometry" />
        </mxCell>
        <mxCell id="rNG54FNHqMWdp60zCdtg-58" value="description" style="text;align=left;verticalAlign=top;spacingLeft=4;spacingRight=4;overflow=hidden;rotatable=0;points=[[0,0.5],[1,0.5]];portConstraint=eastwest;fontFamily=Roboto;fontSource=https%3A%2F%2Ffonts.googleapis.com%2Fcss%3Ffamily%3DRoboto;" parent="rNG54FNHqMWdp60zCdtg-55" vertex="1">
          <mxGeometry y="74" width="160" height="26" as="geometry" />
        </mxCell>
        <mxCell id="rNG54FNHqMWdp60zCdtg-57" value="" style="line;html=1;strokeWidth=1;align=left;verticalAlign=middle;spacingTop=-1;spacingLeft=3;spacingRight=3;rotatable=0;labelPosition=right;points=[];portConstraint=eastwest;sketch=1;curveFitting=1;jiggle=2;" parent="rNG54FNHqMWdp60zCdtg-55" vertex="1">
          <mxGeometry y="100" width="160" height="8" as="geometry" />
        </mxCell>
        <mxCell id="rNG54FNHqMWdp60zCdtg-59" value="&lt;div style=&quot;line-height: 30%;&quot;&gt;&lt;font style=&quot;font-size: 16px;&quot;&gt;Team&lt;/font&gt;&lt;/div&gt;" style="swimlane;fontStyle=2;align=center;verticalAlign=top;childLayout=stackLayout;horizontal=1;startSize=48;horizontalStack=0;resizeParent=1;resizeLast=0;collapsible=1;marginBottom=0;rounded=0;shadow=0;strokeWidth=1;sketch=1;curveFitting=1;jiggle=2;fontFamily=Roboto;fontSource=https%3A%2F%2Ffonts.googleapis.com%2Fcss%3Ffamily%3DRoboto;fontSize=14;spacingTop=15;html=1;" parent="1" vertex="1">
          <mxGeometry x="245" y="362" width="160" height="82" as="geometry">
            <mxRectangle x="295" y="136" width="160" height="48" as="alternateBounds" />
          </mxGeometry>
        </mxCell>
        <mxCell id="rNG54FNHqMWdp60zCdtg-60" value="name" style="text;align=left;verticalAlign=top;spacingLeft=4;spacingRight=4;overflow=hidden;rotatable=0;points=[[0,0.5],[1,0.5]];portConstraint=eastwest;fontFamily=Roboto;fontSource=https%3A%2F%2Ffonts.googleapis.com%2Fcss%3Ffamily%3DRoboto;" parent="rNG54FNHqMWdp60zCdtg-59" vertex="1">
          <mxGeometry y="48" width="160" height="26" as="geometry" />
        </mxCell>
        <mxCell id="rNG54FNHqMWdp60zCdtg-62" value="" style="line;html=1;strokeWidth=1;align=left;verticalAlign=middle;spacingTop=-1;spacingLeft=3;spacingRight=3;rotatable=0;labelPosition=right;points=[];portConstraint=eastwest;sketch=1;curveFitting=1;jiggle=2;" parent="rNG54FNHqMWdp60zCdtg-59" vertex="1">
          <mxGeometry y="74" width="160" height="8" as="geometry" />
        </mxCell>
        <mxCell id="rNG54FNHqMWdp60zCdtg-64" value="&lt;div style=&quot;line-height: 30%;&quot;&gt;&lt;font style=&quot;font-size: 16px;&quot;&gt;Invitation&lt;/font&gt;&lt;/div&gt;" style="swimlane;fontStyle=2;align=center;verticalAlign=top;childLayout=stackLayout;horizontal=1;startSize=48;horizontalStack=0;resizeParent=1;resizeLast=0;collapsible=1;marginBottom=0;rounded=0;shadow=0;strokeWidth=1;sketch=1;curveFitting=1;jiggle=2;fontFamily=Roboto;fontSource=https%3A%2F%2Ffonts.googleapis.com%2Fcss%3Ffamily%3DRoboto;fontSize=14;spacingTop=15;html=1;" parent="1" vertex="1">
          <mxGeometry x="20" y="362" width="160" height="82" as="geometry">
            <mxRectangle x="295" y="136" width="160" height="48" as="alternateBounds" />
          </mxGeometry>
        </mxCell>
        <mxCell id="rNG54FNHqMWdp60zCdtg-65" value="timestamp" style="text;align=left;verticalAlign=top;spacingLeft=4;spacingRight=4;overflow=hidden;rotatable=0;points=[[0,0.5],[1,0.5]];portConstraint=eastwest;fontFamily=Roboto;fontSource=https%3A%2F%2Ffonts.googleapis.com%2Fcss%3Ffamily%3DRoboto;" parent="rNG54FNHqMWdp60zCdtg-64" vertex="1">
          <mxGeometry y="48" width="160" height="26" as="geometry" />
        </mxCell>
        <mxCell id="rNG54FNHqMWdp60zCdtg-66" value="" style="line;html=1;strokeWidth=1;align=left;verticalAlign=middle;spacingTop=-1;spacingLeft=3;spacingRight=3;rotatable=0;labelPosition=right;points=[];portConstraint=eastwest;sketch=1;curveFitting=1;jiggle=2;" parent="rNG54FNHqMWdp60zCdtg-64" vertex="1">
          <mxGeometry y="74" width="160" height="8" as="geometry" />
        </mxCell>
      </root>
    </mxGraphModel>
  </diagram>
</mxfile>
